<svg width="201" height="35" viewBox="0 0 201 35" fill="none" xmlns="http://www.w3.org/2000/svg">
<path d="M80.088 8.08V11.824H75.576V25H70.872V11.824H66.408V8.08H80.088ZM94.6924 18.112C94.6924 18.48 94.6684 18.848 94.6204 19.216H85.7164C85.7644 19.952 85.9644 20.504 86.3164 20.872C86.6844 21.224 87.1484 21.4 87.7084 21.4C88.4924 21.4 89.0524 21.048 89.3884 20.344H94.4044C94.1964 21.272 93.7884 22.104 93.1804 22.84C92.5884 23.56 91.8364 24.128 90.9244 24.544C90.0124 24.96 89.0044 25.168 87.9004 25.168C86.5724 25.168 85.3884 24.888 84.3484 24.328C83.3244 23.768 82.5164 22.968 81.9244 21.928C81.3484 20.888 81.0604 19.664 81.0604 18.256C81.0604 16.848 81.3484 15.632 81.9244 14.608C82.5004 13.568 83.3004 12.768 84.3244 12.208C85.3644 11.648 86.5564 11.368 87.9004 11.368C89.2284 11.368 90.4044 11.64 91.4284 12.184C92.4524 12.728 93.2524 13.512 93.8284 14.536C94.4044 15.544 94.6924 16.736 94.6924 18.112ZM89.8924 16.936C89.8924 16.36 89.7004 15.912 89.3164 15.592C88.9324 15.256 88.4524 15.088 87.8764 15.088C87.3004 15.088 86.8284 15.248 86.4604 15.568C86.0924 15.872 85.8524 16.328 85.7404 16.936H89.8924ZM95.8494 18.256C95.8494 16.864 96.0974 15.648 96.5934 14.608C97.1054 13.568 97.7934 12.768 98.6574 12.208C99.5374 11.648 100.513 11.368 101.585 11.368C102.513 11.368 103.313 11.552 103.985 11.92C104.657 12.288 105.177 12.784 105.545 13.408V11.536H110.249V25H105.545V23.128C105.177 23.752 104.649 24.248 103.961 24.616C103.289 24.984 102.497 25.168 101.585 25.168C100.513 25.168 99.5374 24.888 98.6574 24.328C97.7934 23.768 97.1054 22.968 96.5934 21.928C96.0974 20.872 95.8494 19.648 95.8494 18.256ZM105.545 18.256C105.545 17.392 105.305 16.712 104.825 16.216C104.361 15.72 103.785 15.472 103.097 15.472C102.393 15.472 101.809 15.72 101.345 16.216C100.881 16.696 100.649 17.376 100.649 18.256C100.649 19.12 100.881 19.808 101.345 20.32C101.809 20.816 102.393 21.064 103.097 21.064C103.785 21.064 104.361 20.816 104.825 20.32C105.305 19.824 105.545 19.136 105.545 18.256ZM112.162 18.256C112.162 16.864 112.45 15.648 113.026 14.608C113.602 13.568 114.402 12.768 115.426 12.208C116.466 11.648 117.65 11.368 118.978 11.368C120.69 11.368 122.13 11.84 123.298 12.784C124.466 13.712 125.218 15.016 125.554 16.696H120.562C120.274 15.816 119.714 15.376 118.882 15.376C118.29 15.376 117.818 15.624 117.466 16.12C117.13 16.6 116.962 17.312 116.962 18.256C116.962 19.2 117.13 19.92 117.466 20.416C117.818 20.912 118.29 21.16 118.882 21.16C119.73 21.16 120.29 20.72 120.562 19.84H125.554C125.218 21.504 124.466 22.808 123.298 23.752C122.13 24.696 120.69 25.168 118.978 25.168C117.65 25.168 116.466 24.888 115.426 24.328C114.402 23.768 113.602 22.968 113.026 21.928C112.45 20.888 112.162 19.664 112.162 18.256ZM136.364 11.416C137.9 11.416 139.116 11.936 140.012 12.976C140.924 14 141.38 15.392 141.38 17.152V25H136.676V17.776C136.676 17.008 136.476 16.408 136.076 15.976C135.676 15.528 135.14 15.304 134.468 15.304C133.764 15.304 133.212 15.528 132.812 15.976C132.412 16.408 132.212 17.008 132.212 17.776V25H127.508V7.24H132.212V13.456C132.628 12.848 133.188 12.36 133.892 11.992C134.612 11.608 135.436 11.416 136.364 11.416ZM161.553 11.416C163.249 11.416 164.577 11.928 165.537 12.952C166.513 13.976 167.001 15.376 167.001 17.152V25H162.297V17.776C162.297 17.056 162.097 16.496 161.697 16.096C161.297 15.696 160.753 15.496 160.065 15.496C159.377 15.496 158.833 15.696 158.433 16.096C158.033 16.496 157.833 17.056 157.833 17.776V25H153.129V17.776C153.129 17.056 152.929 16.496 152.529 16.096C152.145 15.696 151.609 15.496 150.921 15.496C150.217 15.496 149.665 15.696 149.265 16.096C148.865 16.496 148.665 17.056 148.665 17.776V25H143.961V11.536H148.665V13.312C149.081 12.736 149.617 12.28 150.273 11.944C150.945 11.592 151.713 11.416 152.577 11.416C153.569 11.416 154.449 11.632 155.217 12.064C156.001 12.496 156.617 13.104 157.065 13.888C157.545 13.152 158.177 12.56 158.961 12.112C159.745 11.648 160.609 11.416 161.553 11.416ZM182.442 18.112C182.442 18.48 182.418 18.848 182.37 19.216H173.466C173.514 19.952 173.714 20.504 174.066 20.872C174.434 21.224 174.898 21.4 175.458 21.4C176.242 21.4 176.802 21.048 177.138 20.344H182.154C181.946 21.272 181.538 22.104 180.93 22.84C180.338 23.56 179.586 24.128 178.674 24.544C177.762 24.96 176.754 25.168 175.65 25.168C174.322 25.168 173.138 24.888 172.098 24.328C171.074 23.768 170.266 22.968 169.674 21.928C169.098 20.888 168.81 19.664 168.81 18.256C168.81 16.848 169.098 15.632 169.674 14.608C170.25 13.568 171.05 12.768 172.074 12.208C173.114 11.648 174.306 11.368 175.65 11.368C176.978 11.368 178.154 11.64 179.178 12.184C180.202 12.728 181.002 13.512 181.578 14.536C182.154 15.544 182.442 16.736 182.442 18.112ZM177.642 16.936C177.642 16.36 177.45 15.912 177.066 15.592C176.682 15.256 176.202 15.088 175.626 15.088C175.05 15.088 174.578 15.248 174.21 15.568C173.842 15.872 173.602 16.328 173.49 16.936H177.642Z" fill="black"/>
<path d="M53.0858 11.5049L45.5253 3.94444C45.5207 3.93977 45.5156 3.93546 45.5109 3.93079C45.5063 3.92612 45.5007 3.91983 45.4953 3.91444C43.2891 1.7084 40.3805 0.343654 37.2737 0.056681C34.1669 -0.230292 31.0578 0.57859 28.4846 2.34317C25.9114 0.57859 22.8023 -0.230292 19.6955 0.056681C16.5887 0.343654 13.6802 1.7084 11.4739 3.91444L3.91344 11.4747C1.55789 13.8309 0.167261 16.9818 0.0141349 20.3099C-0.138991 23.6381 0.956427 26.9035 3.08567 29.4661C5.21493 32.0285 8.22446 33.7034 11.5244 34.1623C14.8243 34.6212 18.1767 33.8312 20.9243 31.9469C23.1491 33.4725 25.7833 34.2893 28.4808 34.2902C31.1785 34.291 33.8131 33.4756 36.0387 31.9512C38.7831 33.8472 42.1373 34.6482 45.4423 34.1972C48.7473 33.746 51.7641 32.0755 53.9002 29.5135C56.0362 26.9515 57.1369 23.6834 56.9864 20.3513C56.8356 17.019 55.4444 13.8636 53.0858 11.5049ZM16.8189 28.1609C15.1122 28.9761 13.1722 29.1615 11.3419 28.6847C9.51154 28.208 7.9087 27.0994 6.81663 25.5551C5.72457 24.0107 5.21357 22.1302 5.37396 20.2456C5.53434 18.361 6.35579 16.5937 7.69312 15.2562L15.2534 7.69574C16.4269 6.52381 17.9343 5.74387 19.5689 5.46305C21.2034 5.18224 22.8848 5.41429 24.382 6.12734L19.0341 11.4747C16.9833 13.5149 15.6556 16.1697 15.2534 19.0344C15.1648 19.6608 15.1202 20.2925 15.1197 20.9252C15.1144 23.4261 15.8157 25.8776 17.1429 27.9974C17.0358 28.0546 16.9278 28.1088 16.8189 28.1604V28.1609ZM34.1548 26.5959C32.6493 28.0916 30.6123 28.9292 28.4902 28.9258C26.368 28.9222 24.3339 28.0776 22.8332 26.5771C21.3327 25.0764 20.4881 23.0423 20.4845 20.9201C20.4811 18.798 21.3187 16.761 22.8144 15.2555L28.4846 9.58522L34.1548 15.2555C35.656 16.7604 36.4991 18.7994 36.4991 20.9252C36.4991 23.0507 35.656 25.0897 34.1548 26.5947V26.5959ZM49.3055 26.6259C48.1265 27.8019 46.6111 28.5823 44.969 28.8591C43.327 29.136 41.6395 28.8956 40.1401 28.1712C40.0322 28.1192 39.9255 28.0648 39.82 28.0078C41.1513 25.8857 41.8549 23.4302 41.8495 20.9252C41.849 20.2925 41.8044 19.6608 41.7158 19.0344C41.3137 16.1697 39.9859 13.5149 37.9351 11.4747L32.6199 6.15968L32.5899 6.12967C34.0864 5.41695 35.7669 5.18474 37.4007 5.46489C39.0345 5.74506 40.5414 6.52387 41.7151 7.69448C41.7205 7.69987 41.7255 7.70562 41.7307 7.71101C41.7359 7.7164 41.7404 7.71999 41.7451 7.72466L49.2701 15.2497L49.3061 15.2856C50.8098 16.7895 51.6546 18.8292 51.6546 20.9559C51.6546 23.0825 50.8098 25.1222 49.3061 26.6261L49.3055 26.6259Z" fill="url(#paint0_linear)"/>
<defs>
<linearGradient id="paint0_linear" x1="15.618" y1="33.9424" x2="28.6512" y2="-2.2994" gradientUnits="userSpaceOnUse">
<stop stop-color="#CB1A1A"/>
<stop offset="1" stop-color="#FF2539"/>
</linearGradient>
</defs>
</svg>
